Coordinates
version=1
nRows=8
nColumns=35
inDegrees=yes

Units are S.I. units (second, meters, Newtons, ...)
If the header above contains a line with 'inDegrees', this indicates whether rotational values are in degrees (yes) or radians (no).

endheader
time	sternoclavicular_r2	sternoclavicular_r3	unrotscap_r3	unrotscap_r2	acromioclavicular_r2	acromioclavicular_r3	acromioclavicular_r1	unrothum_r1	unrothum_r3	unrothum_r2	elv_angle	shoulder_elv	shoulder1_r2	shoulder_rot	elbow_flexion	pro_sup	deviation	flexion	proximal_distal_r1	proximal_distal_r3	cmc_flexion	cmc_abduction	mp_flexion	ip_flexion	2mcp_flexion	2mcp_abduction	2pm_flexion	2md_flexion	FPLpt_tx	FPLpt_ty	FPLpt_tz	FPLpt2_tx	FPLpt2_ty	FPLpt2_tz
      4.19000000	     -5.78070473	      2.44843369	     -2.44843369	      5.78070473	     -1.17047512	      9.45936819	      4.25192090	     -4.25192090	     -9.45936819	      1.17047512	     23.72929748	     23.88715609	    -23.72929748	     23.50922238	     95.56130864	      9.25226198	      0.16762741	      0.01445468	     11.71668916	      0.41409605	      3.36700001	     19.30517633	    -27.65299999	    -34.18399999	      1.78845252	      7.65299997	     26.93900001	     34.89800000	     -0.00001915	     -0.00005746	     -0.00003232	      0.00004241	     -0.00007788	     -0.00009345
      4.20000000	     -5.75204287	      2.43629388	     -2.43629388	      5.75204287	     -1.16467168	      9.41246680	      4.23083905	     -4.23083905	     -9.41246680	      1.16467168	     24.23000970	     23.76871891	    -24.23000970	     24.06856060	     95.58249869	      8.68412136	      0.16097264	      0.01329814	     11.30182014	      0.38096363	      3.36700001	     19.31655511	    -27.65299999	    -34.18399999	      1.39358744	      7.65299997	     26.93900001	     34.89800000	     -0.00001760	     -0.00005281	     -0.00002971	      0.00004241	     -0.00007788	     -0.00009345
      4.21000000	     -5.74483225	      2.43323980	     -2.43323980	      5.74483225	     -1.16321167	      9.40066756	      4.22553537	     -4.22553537	     -9.40066756	      1.16321167	     24.26489767	     23.73892302	    -24.26489767	     24.17331837	     95.62053248	      8.68337884	      0.16090760	      0.01345354	     11.29770139	      0.38541550	      3.36700001	     19.31630664	    -27.65299999	    -34.18399999	      1.39730195	      7.65299997	     26.93900001	     34.89800000	     -0.00001781	     -0.00005344	     -0.00003006	      0.00004241	     -0.00007788	     -0.00009345
      4.22000000	     -5.66219435	      2.39823829	     -2.39823829	      5.66219435	     -1.14647918	      9.26544144	      4.16475216	     -4.16475216	     -9.26544144	      1.14647918	     24.96564458	     23.39744487	    -24.96564458	     24.86763625	     96.08187519	      9.00549496	      0.16471779	      0.00771906	     11.53582906	      0.22113467	      3.36700001	     19.59914183	    -27.65299999	    -34.18399999	      1.17349666	      7.65299997	     26.93900001	     34.89800000	     -0.00001017	     -0.00003052	     -0.00001717	      0.00004241	     -0.00007788	     -0.00009345
      4.23000000	     -5.62316243	      2.38170621	     -2.38170621	      5.62316243	     -1.13857601	      9.20157080	      4.13604275	     -4.13604275	     -9.20157080	      1.13857601	     25.70579709	     23.23615631	    -25.70579709	     25.97499831	     96.40444215	      9.02920826	      0.18295838	     -0.00586103	     12.65673862	     -0.16790611	      3.36700001	     21.42922227	    -27.65299999	    -34.18399999	     -1.24619618	      7.65299997	     26.93900001	     34.89800000	      0.00000764	      0.00002292	      0.00001289	      0.00004241	     -0.00007788	     -0.00009345
      4.24000000	     -5.58460893	      2.36537676	     -2.36537676	      5.58460893	     -1.13076971	      9.13848303	      4.10768523	     -4.10768523	     -9.13848303	      1.13076971	     26.52862820	     23.07684469	    -26.52862820	     26.60476816	     96.63269462	      9.18029703	      0.18047780	      0.05878615	     12.50613183	      1.68409900	      3.36700001	     19.16577958	    -27.65299999	    -34.18399999	     -8.99008792	      7.65299997	     26.93900001	     34.89800000	     -0.00008068	     -0.00024205	     -0.00013615	      0.00004241	     -0.00007788	     -0.00009345
      4.25000000	     -5.54467093	      2.34846091	     -2.34846091	      5.54467093	     -1.12268308	      9.07312970	      4.07830936	     -4.07830936	     -9.07312970	      1.12268308	     27.27411909	     22.91181198	    -27.27411909	     27.12547393	     96.71531289	      9.77733994	      0.19330292	      0.05428744	     13.27858937	      1.55522053	      3.36700001	     19.20168562	    -27.65299999	    -34.18399999	     -8.96095671	      7.65299997	     26.93900001	     34.89800000	     -0.00007425	     -0.00022274	     -0.00012529	      0.00004241	     -0.00007788	     -0.00009345
      4.26000000	     -5.54047974	      2.34668572	     -2.34668572	      5.54047974	     -1.12183444	      9.06627137	      4.07522659	     -4.07522659	     -9.06627137	      1.12183444	     27.40169544	     22.89449306	    -27.40169544	     27.23796010	     96.71013963	      9.80322227	      0.19270366	      0.05465952	     13.24283042	      1.56588002	      3.36700001	     19.31091620	    -27.65299999	    -34.18399999	     -9.09566448	      7.65299997	     26.93900001	     34.89800000	     -0.00007478	     -0.00022435	     -0.00012620	      0.00004241	     -0.00007788	     -0.00009345
